<?xml version="1.0" standalone="no"?>
<!DOCTYPE svg PUBLIC "-//W3C//DTD SVG 20010904//EN"
 "http://www.w3.org/TR/2001/REC-SVG-20010904/DTD/svg10.dtd">
<svg version="1.0" xmlns="http://www.w3.org/2000/svg"
 width="564.000000pt" height="551.000000pt" viewBox="0 0 564.000000 551.000000"
 preserveAspectRatio="xMidYMid meet">
<metadata>
Created by potrace 1.15, written by Peter Selinger 2001-2017
</metadata>
<g transform="translate(0.000000,551.000000) scale(0.100000,-0.100000)"
fill="#000000" stroke="none">
<path d="M95 5480 c19 -36 19 -40 1 -40 -8 0 -26 -10 -39 -22 -38 -35 -73
-208 -49 -244 22 -33 45 -34 1022 -34 l971 0 112 -81 c61 -45 132 -100 157
-122 85 -76 191 -200 227 -265 31 -56 37 -77 41 -144 4 -64 2 -78 -10 -78 -11
0 -18 -20 -27 -71 -15 -95 -64 -222 -177 -466 -52 -111 -100 -226 -108 -256
-30 -114 -49 -350 -44 -550 5 -181 -4 -339 -31 -558 -6 -46 -18 -241 -26 -434
-31 -704 -70 -1042 -188 -1627 -27 -133 -31 -168 -20 -168 19 0 790 79 841 86
l42 6 0 97 c0 53 -7 422 -15 821 -16 738 -14 885 11 1000 23 103 102 252 201
374 84 105 223 252 330 347 28 25 60 63 71 85 29 58 52 154 53 225 1 59 0 63
-41 104 -49 50 -49 50 35 155 67 82 115 159 115 181 0 26 -48 59 -84 59 -19 0
-47 -11 -66 -25 -68 -50 -81 -17 -25 64 19 28 51 74 70 102 48 70 47 101 -7
152 -38 36 -45 39 -87 35 -34 -3 -65 -17 -116 -51 -118 -79 -123 -64 -26 77
73 108 111 176 111 199 0 23 -38 64 -66 71 -39 10 -103 -26 -181 -102 -64 -62
-309 -326 -432 -466 -112 -126 -129 -114 -70 50 61 174 65 197 52 316 -10 87
-16 108 -42 144 -34 49 -25 68 17 37 43 -32 66 -112 66 -233 0 -93 -3 -115
-31 -195 -18 -49 -31 -90 -30 -92 2 -1 79 80 172 180 94 100 204 218 246 262
l76 80 6 74 c5 65 12 83 54 152 64 107 211 254 363 362 l122 87 963 0 c958 0
1007 2 1027 33 23 37 -11 211 -48 245 -14 12 -32 22 -40 22 -18 0 -18 4 1 40
l16 30 -2741 0 -2741 0 16 -30z"/>
</g>
</svg>
